<svg width="25" height="24" viewBox="0 0 25 24" fill="none" xmlns="http://www.w3.org/2000/svg">
<path d="M14.2845 13.0787C13.5858 13.0787 12.9944 12.8367 12.5105 12.3527C12.0265 11.8687 11.7845 11.2774 11.7845 10.5787C11.7845 9.87999 12.0265 9.28865 12.5105 8.80469C12.9944 8.32072 13.5858 8.07874 14.2845 8.07874C14.9832 8.07874 15.5745 8.32072 16.0585 8.80469C16.5425 9.28865 16.7844 9.87999 16.7844 10.5787C16.7844 11.2774 16.5425 11.8687 16.0585 12.3527C15.5745 12.8367 14.9832 13.0787 14.2845 13.0787ZM6.95759 16.5402C6.56593 16.5402 6.22763 16.3977 5.94269 16.1128C5.65776 15.8279 5.51529 15.4896 5.51529 15.0979V6.05949C5.51529 5.66782 5.65776 5.32952 5.94269 5.04459C6.22763 4.75965 6.56593 4.61719 6.95759 4.61719H21.6113C22.003 4.61719 22.3413 4.75965 22.6262 5.04459C22.9112 5.32952 23.0536 5.66782 23.0536 6.05949V15.0979C23.0536 15.4896 22.9112 15.8279 22.6262 16.1128C22.3413 16.3977 22.003 16.5402 21.6113 16.5402H6.95759ZM8.82294 15.4056H19.746C19.746 14.8018 19.9576 14.2886 20.3809 13.8662C20.8041 13.4438 21.3168 13.2325 21.9191 13.2325V7.92484C21.3152 7.92484 20.8021 7.71322 20.3797 7.28999C19.9572 6.86675 19.746 6.35402 19.746 5.75179H8.82294C8.82294 6.35562 8.61133 6.86875 8.18809 7.29119C7.76486 7.71362 7.25213 7.92484 6.64989 7.92484V13.2325C7.25373 13.2325 7.76686 13.4442 8.18929 13.8674C8.61173 14.2906 8.82294 14.8034 8.82294 15.4056ZM20.0729 19.3094H4.18839C3.79673 19.3094 3.45843 19.1669 3.17349 18.882C2.88856 18.5971 2.74609 18.2588 2.74609 17.8671V7.59796H3.88067V17.8671C3.88067 17.944 3.91273 18.0145 3.97684 18.0787C4.04094 18.1428 4.11146 18.1748 4.18839 18.1748H20.0729V19.3094ZM6.95759 15.4056H6.64989V5.75179H6.95759C6.87426 5.75179 6.80214 5.78224 6.74124 5.84314C6.68034 5.90404 6.64989 5.97615 6.64989 6.05949V15.0979C6.64989 15.1812 6.68034 15.2533 6.74124 15.3142C6.80214 15.3752 6.87426 15.4056 6.95759 15.4056Z" fill="white"/>
</svg>
