<svg width="21" height="20" viewBox="0 0 21 20" fill="none" xmlns="http://www.w3.org/2000/svg">
<path d="M11.1458 0C12.2708 0.003 12.8418 0.009 13.3348 0.023L13.5288 0.03C13.7528 0.038 13.9738 0.0479999 14.2408 0.06C15.3048 0.11 16.0308 0.278 16.6678 0.525C17.3278 0.779 17.8838 1.123 18.4398 1.678C18.9483 2.1779 19.3417 2.78259 19.5928 3.45C19.8398 4.087 20.0078 4.813 20.0578 5.878C20.0698 6.144 20.0798 6.365 20.0878 6.59L20.0938 6.784C20.1088 7.276 20.1148 7.847 20.1168 8.972L20.1178 9.718V11.028C20.1202 11.7574 20.1126 12.4868 20.0948 13.216L20.0888 13.41C20.0808 13.635 20.0708 13.856 20.0588 14.122C20.0088 15.187 19.8388 15.912 19.5928 16.55C19.3424 17.2178 18.9489 17.8226 18.4398 18.322C17.9397 18.8303 17.3351 19.2238 16.6678 19.475C16.0308 19.722 15.3048 19.89 14.2408 19.94C14.0035 19.9512 13.7661 19.9612 13.5288 19.97L13.3348 19.976C12.8418 19.99 12.2708 19.997 11.1458 19.999L10.3998 20H9.09076C8.36103 20.0025 7.63129 19.9949 6.90176 19.977L6.70776 19.971C6.47037 19.962 6.23304 19.9517 5.99576 19.94C4.93176 19.89 4.20576 19.722 3.56776 19.475C2.90043 19.2244 2.29598 18.8309 1.79676 18.322C1.28781 17.8223 0.893989 17.2176 0.642765 16.55C0.395765 15.913 0.227764 15.187 0.177764 14.122C0.166623 13.8847 0.156623 13.6474 0.147764 13.41L0.142765 13.216C0.124337 12.4868 0.116002 11.7574 0.117765 11.028V8.972C0.114974 8.2426 0.122308 7.5132 0.139765 6.784L0.146765 6.59C0.154765 6.365 0.164765 6.144 0.176765 5.878C0.226765 4.813 0.394764 4.088 0.641764 3.45C0.892878 2.7819 1.28748 2.17702 1.79776 1.678C2.29686 1.16947 2.90091 0.775987 3.56776 0.525C4.20576 0.278 4.93076 0.11 5.99576 0.06C6.26176 0.0479999 6.48376 0.038 6.70776 0.03L6.90176 0.0239999C7.63096 0.00623271 8.36036 -0.0014347 9.08976 0.000999928L11.1458 0ZM10.1178 5C8.79168 5 7.51991 5.52678 6.58223 6.46447C5.64455 7.40215 5.11776 8.67392 5.11776 10C5.11776 11.3261 5.64455 12.5979 6.58223 13.5355C7.51991 14.4732 8.79168 15 10.1178 15C11.4438 15 12.7156 14.4732 13.6533 13.5355C14.591 12.5979 15.1178 11.3261 15.1178 10C15.1178 8.67392 14.591 7.40215 13.6533 6.46447C12.7156 5.52678 11.4438 5 10.1178 5ZM10.1178 7C10.5117 6.99994 10.9019 7.07747 11.2659 7.22817C11.6299 7.37887 11.9606 7.5998 12.2392 7.87833C12.5179 8.15686 12.7389 8.48754 12.8897 8.85149C13.0405 9.21544 13.1182 9.60554 13.1183 9.9995C13.1183 10.3935 13.0408 10.7836 12.8901 11.1476C12.7394 11.5116 12.5185 11.8423 12.2399 12.121C11.9614 12.3996 11.6307 12.6206 11.2668 12.7714C10.9028 12.9223 10.5127 12.9999 10.1188 13C9.32312 13 8.56005 12.6839 7.99744 12.1213C7.43483 11.5587 7.11876 10.7957 7.11876 10C7.11876 9.20435 7.43483 8.44129 7.99744 7.87868C8.56005 7.31607 9.32312 7 10.1188 7M15.3688 3.5C15.0372 3.5 14.7193 3.6317 14.4849 3.86612C14.2505 4.10054 14.1188 4.41848 14.1188 4.75C14.1188 5.08152 14.2505 5.39946 14.4849 5.63388C14.7193 5.8683 15.0372 6 15.3688 6C15.7003 6 16.0182 5.8683 16.2526 5.63388C16.4871 5.39946 16.6188 5.08152 16.6188 4.75C16.6188 4.41848 16.4871 4.10054 16.2526 3.86612C16.0182 3.6317 15.7003 3.5 15.3688 3.5Z" fill="#CCD6DD"/>
</svg>
