<svg width="25" height="24" viewBox="0 0 25 24" fill="none" xmlns="http://www.w3.org/2000/svg">
<path d="M5.89766 17.6731C6.89637 16.9846 7.88996 16.451 8.87841 16.0721C9.86687 15.6933 10.9399 15.5038 12.0976 15.5038C13.2553 15.5038 14.331 15.6933 15.3246 16.0721C16.3181 16.451 17.3143 16.9846 18.313 17.6731C19.0399 16.8308 19.58 15.9414 19.9332 15.0049C20.2864 14.0685 20.463 13.0668 20.463 12C20.463 9.64101 19.6585 7.65703 18.0496 6.04805C16.4406 4.43908 14.4566 3.6346 12.0976 3.6346C9.73867 3.6346 7.75469 4.43908 6.14571 6.04805C4.53674 7.65703 3.73226 9.64101 3.73226 12C3.73226 13.0668 3.91142 14.0685 4.26976 15.0049C4.62809 15.9414 5.17072 16.8308 5.89766 17.6731ZM12.0922 12.5673C11.1933 12.5673 10.4371 12.2587 9.82361 11.6417C9.21014 11.0246 8.90341 10.2666 8.90341 9.36763C8.90341 8.46869 9.21195 7.71249 9.82903 7.09903C10.4461 6.48558 11.2041 6.17885 12.1031 6.17885C13.002 6.17885 13.7582 6.48738 14.3717 7.10445C14.9851 7.72152 15.2919 8.47953 15.2919 9.37848C15.2919 10.2774 14.9833 11.0336 14.3662 11.6471C13.7492 12.2605 12.9912 12.5673 12.0922 12.5673ZM12.1093 21.5C10.7926 21.5 9.55722 21.2519 8.40328 20.7557C7.24937 20.2596 6.24136 19.5798 5.37926 18.7163C4.51717 17.8528 3.83806 16.8468 3.34191 15.6981C2.84574 14.5495 2.59766 13.3161 2.59766 11.9981C2.59766 10.6801 2.84574 9.44742 3.34191 8.3C3.83806 7.15257 4.51786 6.14712 5.38131 5.28365C6.24477 4.4202 7.25083 3.7404 8.39948 3.24425C9.54815 2.74808 10.7815 2.5 12.0995 2.5C13.4175 2.5 14.6502 2.74808 15.7976 3.24425C16.945 3.7404 17.9505 4.4202 18.814 5.28365C19.6774 6.14712 20.3572 7.15283 20.8534 8.3008C21.3495 9.44877 21.5976 10.6779 21.5976 11.9883C21.5976 13.305 21.3495 14.5404 20.8534 15.6943C20.3572 16.8482 19.6774 17.8563 18.814 18.7184C17.9505 19.5804 16.9448 20.2596 15.7968 20.7557C14.6488 21.2519 13.4197 21.5 12.1093 21.5ZM12.0976 20.3654C13.0271 20.3654 13.9438 20.2176 14.8476 19.9221C15.7515 19.6266 16.6028 19.1487 17.4015 18.4884C16.6028 17.9012 15.7569 17.4461 14.864 17.123C13.971 16.8 13.0489 16.6384 12.0976 16.6384C11.1463 16.6384 10.2226 16.7984 9.32648 17.1182C8.43031 17.4381 7.58929 17.8948 6.80341 18.4884C7.59571 19.1487 8.44378 19.6266 9.34763 19.9221C10.2515 20.2176 11.1681 20.3654 12.0976 20.3654ZM12.099 11.4327C12.6968 11.4327 13.1893 11.2386 13.5765 10.8506C13.9637 10.4625 14.1573 9.96954 14.1573 9.37173C14.1573 8.77389 13.9632 8.28138 13.5751 7.8942C13.1871 7.50702 12.6941 7.31343 12.0963 7.31343C11.4985 7.31343 11.006 7.50747 10.6188 7.89555C10.2316 8.28362 10.038 8.77657 10.038 9.3744C10.038 9.97222 10.232 10.4647 10.6201 10.8519C11.0082 11.2391 11.5011 11.4327 12.099 11.4327Z" fill="white"/>
</svg>
