<svg width="25" height="24" viewBox="0 0 25 24" fill="none" xmlns="http://www.w3.org/2000/svg">
<path d="M20.0646 20.5633L13.5762 14.0749C13.0787 14.5151 12.4986 14.8544 11.8359 15.0926C11.1732 15.3308 10.4873 15.4499 9.7781 15.4499C8.08022 15.4499 6.64325 14.8623 5.4672 13.687C4.29115 12.5118 3.70312 11.0868 3.70312 9.41207C3.70312 7.73732 4.29074 6.3118 5.46598 5.13552C6.64121 3.95923 8.06803 3.37109 9.74645 3.37109C11.4249 3.37109 12.852 3.95887 14.0278 5.13442C15.2036 6.30995 15.7915 7.7354 15.7915 9.41077C15.7915 10.1112 15.6717 10.7932 15.4319 11.4566C15.1922 12.1201 14.8454 12.7211 14.3915 13.2595L20.8954 19.723L20.0646 20.5633ZM9.76273 14.3153C11.1286 14.3153 12.2858 13.8394 13.2343 12.8874C14.1827 11.9355 14.6569 10.7765 14.6569 9.41049C14.6569 8.04448 14.1827 6.8855 13.2343 5.93357C12.2858 4.98165 11.1286 4.50569 9.76273 4.50569C8.38826 4.50569 7.22381 4.98165 6.26937 5.93357C5.31494 6.8855 4.83773 8.04448 4.83773 9.41049C4.83773 10.7765 5.31494 11.9355 6.26937 12.8874C7.22381 13.8394 8.38826 14.3153 9.76273 14.3153Z" fill="white"/>
</svg>
