<svg width="25" height="24" viewBox="0 0 25 24" fill="none" xmlns="http://www.w3.org/2000/svg">
<path d="M10.505 15.8557L16.5549 12L10.505 8.14423V15.8557ZM12.7009 21.5C11.3972 21.5 10.1689 21.2506 9.01594 20.752C7.86301 20.2533 6.85477 19.5724 5.99122 18.7092C5.12765 17.846 4.44643 16.8382 3.94754 15.6858C3.44866 14.5334 3.19922 13.3053 3.19922 12.0017C3.19922 10.6877 3.44855 9.45268 3.94722 8.29655C4.44589 7.1404 5.1268 6.13472 5.98997 5.2795C6.85315 4.42427 7.86095 3.74721 9.01337 3.24833C10.1658 2.74944 11.3939 2.5 12.6975 2.5C14.0115 2.5 15.2465 2.74933 16.4026 3.248C17.5588 3.74667 18.5645 4.42342 19.4197 5.27825C20.2749 6.1331 20.952 7.13834 21.4508 8.29398C21.9497 9.44959 22.1992 10.6844 22.1992 11.9983C22.1992 13.302 21.9498 14.5303 21.4512 15.6832C20.9525 16.8362 20.2758 17.8444 19.4209 18.708C18.5661 19.5715 17.5608 20.2527 16.4052 20.7516C15.2496 21.2505 14.0148 21.5 12.7009 21.5ZM12.6992 20.3654C15.0274 20.3654 17.0037 19.5506 18.628 17.9211C20.2524 16.2916 21.0646 14.3179 21.0646 12C21.0646 9.67178 20.2524 7.69549 18.628 6.07113C17.0037 4.44678 15.0274 3.6346 12.6992 3.6346C10.3812 3.6346 8.40753 4.44678 6.77804 6.07113C5.14856 7.69549 4.33382 9.67178 4.33382 12C4.33382 14.3179 5.14856 16.2916 6.77804 17.9211C8.40753 19.5506 10.3812 20.3654 12.6992 20.3654Z" fill="white"/>
</svg>
